<?xml version="1.0" encoding="utf-8"?>
<svg xmlns="http://www.w3.org/2000/svg" xmlns:xlink="http://www.w3.org/1999/xlink" version= "1.1" width="500px" height="250px" viewBox="110 635 500 250">
<rect x="110" y="635" width="500" height="250" fill="none"/>
<g id="layer1">
<g>
<g style="fill:#FFC300; fill-opacity:1.0; stroke-linejoin: miter">
<path d="M577.73535,702.1365C561.81946,704.56433,543.206,715.35486,534.3039,726.95447C530.79706,731.5404,521.0857,747.1865,512.9928,761.2141C497.07697,788.72974,489.79346,796.01324,477.38446,797.3621C461.7384,798.7109,452.83624,790.6181,433.4135,756.0886C411.02338,716.16406,391.33087,701.8667,359.76892,701.8667C327.66742,702.1365,307.97498,716.7036,285.58484,757.4374C278.30127,770.386,268.32013,785.22284,263.7342,790.3483C255.6414,798.7109,253.75307,799.52014,243.77196,798.1714C228.9351,796.283,221.11205,788.1902,203.30788,756.89795C194.67555,741.5216,183.88515,726.6847,177.14113,720.75C158.79741,704.29456,130.47258,697.011,121.570465,706.18286C112.93814,714.8152,119.951904,726.14526,133.70967,726.14526C152.32317,726.14526,166.62047,739.09375,186.04323,773.8928C207.08452,811.11993,219.22374,821.3708,243.50218,821.6405C269.66895,821.6405,283.42676,810.8501,304.46808,773.0836C325.7791,734.7776,336.03003,726.14526,360.0387,726.14526C384.04736,726.14526,393.75873,734.5078,417.49762,774.70215C425.59045,788.72974,435.84137,803.8363,440.4273,807.8827C449.8689,816.78485,468.2126,822.9894,481.43085,821.3708C502.74194,818.6732,515.9602,806.26416,535.9225,769.84644C553.7266,738.01465,564.7868,727.494,583.67004,724.7964C599.0464,722.6383,604.98114,716.43384,600.39526,707.53174C596.6186,700.7877,592.8419,699.7086,577.73535,702.1365 Z"/>
</g>
</g>
</g>
</svg>