<?xml version="1.0" encoding="utf-8"?>
<svg xmlns="http://www.w3.org/2000/svg" xmlns:xlink="http://www.w3.org/1999/xlink" version= "1.1" width="250px" height="250px" viewBox="235 635 250 250">
<rect x="235" y="635" width="250" height="250" fill="none"/>
<g id="layer1" opacity="0.0">
<g style="fill:#FFC300; fill-opacity:1.0; stroke-linejoin: miter">
<path d="M480.23172,760.5836L480.23172,760.5836C480.23172,827.1961,426.23154,881.1963,359.61902,881.1963L359.61902,881.1963C293.0065,881.1963,239.00632,827.1961,239.00632,760.5836L239.00632,760.5836C239.00632,693.97125,293.0065,639.9709,359.61902,639.9709L359.61902,639.9709C426.23154,639.9709,480.23172,693.97125,480.23172,760.5836L480.23172,760.5836 M450.20084,760.5836L450.20084,760.5836C450.20084,710.5568,409.6459,670.0018,359.61902,670.0018L359.61902,670.0018C309.59213,670.0018,269.0372,710.5568,269.0372,760.5836L269.0372,760.5836C269.0372,810.6105,309.5921,851.1654,359.61902,851.1654L359.61902,851.1654C409.64594,851.1654,450.20084,810.6105,450.20084,760.5836 Z"/>
</g>
<g style="fill:none; fill-opacity:1.0; stroke-linejoin: miter">
<path d="M333.33322,712.5666L333.33322,712.5666L333.33322,712.5666L333.33322,712.5666L333.33322,712.5666L333.33322,712.5666L333.33322,712.5666L333.33322,712.5666L333.33322,712.5666L333.33322,712.5666 M333.33316,713.8004L333.33316,713.8004L333.33316,713.8004L333.33316,713.8004L333.33316,713.8004L333.33316,713.8004L333.33316,713.8004L333.33316,713.8004L333.33316,713.8004 Z"/>
</g>
</g>
<g id="layer2" opacity="0.0">
<g style="fill:#FFC300; fill-opacity:1.0; stroke-linejoin: miter">
<path d="M253.6836,638.72876L253.6836,638.72876L465.595,638.72974C474.14966,638.7298,481.08456,645.66473,481.08456,654.21936L481.08456,654.21936L481.08456,866.1298C481.08456,874.68445,474.14966,881.6194,465.595,881.61945L465.595,881.61945L253.6836,881.6204C249.57549,881.6204,245.6356,879.98846,242.73073,877.0836C239.82585,874.1788,238.19391,870.2389,238.19391,866.1308L238.19391,866.1308L238.19391,654.2184C238.19391,650.1103,239.82585,646.1704,242.73073,643.26556C245.6356,640.3607,249.57549,638.72876,253.6836,638.72876L253.6836,638.72876 M253.68344,669.708L269.17313,654.2184L269.17313,866.1308L253.68344,850.6412L465.59488,850.6402L450.10532,866.1298L450.10532,654.21936L465.59488,669.709L253.68344,669.708 Z"/>
</g>
<g style="fill:#FFC300; fill-opacity:1.0; stroke-linejoin: miter">
<path d="M218.82721,459.73764L218.82721,459.73764L218.82721,459.73804L210.92432,459.73804L210.92432,459.73764L218.82721,459.73764L218.82721,459.73804L210.92432,459.73804L210.92432,459.73764L218.82721,459.73764 M210.92432,459.73764C210.92432,457.55533,212.69344,455.7862,214.87576,455.7862C217.05809,455.7862,218.82721,457.55533,218.82721,459.73764L218.82721,459.73764L218.82721,459.73804C218.82721,461.92035,217.05809,463.68948,214.87576,463.68948C212.69344,463.68948,210.92432,461.92035,210.92432,459.73804L210.92432,459.73804L210.92432,459.73764C210.92432,457.55533,212.69344,455.7862,214.87576,455.7862C217.05809,455.7862,218.82721,457.55533,218.82721,459.73764L218.82721,459.73764L218.82721,459.73804C218.82721,461.92035,217.05809,463.68948,214.87576,463.68948C212.69344,463.68948,210.92432,461.92035,210.92432,459.73804L210.92432,459.73804L210.92432,459.73764 Z"/>
</g>
</g>
<g id="layer3" opacity="0.0">
<g style="fill:#FFC300; fill-opacity:1.0; stroke-linejoin: miter">
<path d="M372.986,647.46576L372.986,647.46576L479.4277,859.4314C483.19482,866.93317,480.1673,876.06836,472.66553,879.8355C465.16376,883.60266,456.0285,880.57513,452.26138,873.07336L452.26138,873.07336L345.81967,661.1077C342.05255,653.60596,345.08008,644.47076,352.58185,640.7036C360.08362,636.93646,369.21887,639.964,372.986,647.46576 Z"/>
</g>
<g style="fill:#FFC300; fill-opacity:1.0; stroke-linejoin: miter">
<path d="M218.82721,459.73764L218.82721,459.73764L218.82721,459.73804C218.82721,461.92035,217.05809,463.68948,214.87576,463.68948C212.69344,463.68948,210.92432,461.92035,210.92432,459.73804L210.92432,459.73804L210.92432,459.73764C210.92432,457.55533,212.69344,455.7862,214.87576,455.7862C217.05809,455.7862,218.82721,457.55533,218.82721,459.73764 Z"/>
</g>
<g style="fill:#FFC300; fill-opacity:1.0; stroke-linejoin: miter">
<path d="M138.64323,242.24847L138.64323,242.24847L138.64323,242.24911C138.64323,244.43144,136.87411,246.20056,134.69179,246.20056C132.50946,246.20056,130.74034,244.43144,130.74034,242.24911L130.74034,242.24911L130.74034,242.24847C130.74034,240.06615,132.50946,238.29703,134.69179,238.29703C136.87411,238.29703,138.64323,240.06615,138.64323,242.24847 Z"/>
</g>
<g style="fill:#FFC300; fill-opacity:1.0; stroke-linejoin: miter">
<path d="M465.83136,881.6293L465.83136,881.6293L253.47841,881.6026C245.0839,881.60156,238.27966,874.79565,238.28072,866.4011C238.28177,858.0066,245.0877,851.2024,253.48222,851.2034L253.48222,851.2034L465.8352,851.2301C474.2297,851.23114,481.03397,858.03705,481.0329,866.4316C481.03183,874.8261,474.22586,881.6303,465.83136,881.6293 Z"/>
</g>
<g style="fill:#FFC300; fill-opacity:1.0; stroke-linejoin: miter">
<path d="M218.82721,459.73764L218.82721,459.73764L218.82721,459.73804C218.82721,461.92035,217.05809,463.68948,214.87576,463.68948C212.69344,463.68948,210.92432,461.92035,210.92432,459.73804L210.92432,459.73804L210.92432,459.73764C210.92432,457.55533,212.69344,455.7862,214.87576,455.7862C217.05809,455.7862,218.82721,457.55533,218.82721,459.73764 Z"/>
</g>
<g style="fill:#FFC300; fill-opacity:1.0; stroke-linejoin: miter">
<path d="M138.64323,242.24847L138.64323,242.24847L138.64323,242.24911C138.64323,244.43144,136.87411,246.20056,134.69179,246.20056C132.50946,246.20056,130.74034,244.43144,130.74034,242.24911L130.74034,242.24911L130.74034,242.24847C130.74034,240.06615,132.50946,238.29703,134.69179,238.29703C136.87411,238.29703,138.64323,240.06615,138.64323,242.24847 Z"/>
</g>
<g style="fill:#FFC300; fill-opacity:1.0; stroke-linejoin: miter">
<path d="M138.64323,242.24847L138.64323,242.24847L138.64323,242.24898C138.64323,244.4313,136.87411,246.20044,134.6918,246.20044C132.50946,246.20044,130.74036,244.4313,130.74036,242.24898L130.74036,242.24898L130.74036,242.24847C130.74036,240.06615,132.50946,238.29701,134.69179,238.29701C136.87411,238.29701,138.64323,240.06615,138.64323,242.24847 Z"/>
</g>
<g style="fill:#FFC300; fill-opacity:1.0; stroke-linejoin: miter">
<path d="M373.1324,661.06335L373.1324,661.06335L267.11942,873.2209C263.36713,880.7301,254.23792,883.7757,246.7287,880.02344C239.21948,876.2712,236.17389,867.14197,239.92616,859.63275L239.92616,859.63275L345.93915,647.4752C349.69144,639.966,358.82065,636.9204,366.32986,640.67267C373.83908,644.4249,376.88467,653.55414,373.1324,661.06335 Z"/>
</g>
<g style="fill:#FFC300; fill-opacity:1.0; stroke-linejoin: miter">
<path d="M218.82721,459.73764L218.82721,459.73764L218.82721,459.73804C218.82721,461.92035,217.05809,463.68948,214.87576,463.68948C212.69344,463.68948,210.92432,461.92035,210.92432,459.73804L210.92432,459.73804L210.92432,459.73764C210.92432,457.55533,212.69344,455.7862,214.87576,455.7862C217.05809,455.7862,218.82721,457.55533,218.82721,459.73764 Z"/>
</g>
<g style="fill:#FFC300; fill-opacity:1.0; stroke-linejoin: miter">
<path d="M138.64323,242.24847L138.64323,242.24847L138.64323,242.24911C138.64323,244.43144,136.87411,246.20056,134.69179,246.20056C132.50946,246.20056,130.74034,244.43144,130.74034,242.24911L130.74034,242.24911L130.74034,242.24847C130.74034,240.06615,132.50946,238.29703,134.69179,238.29703C136.87411,238.29703,138.64323,240.06615,138.64323,242.24847 Z"/>
</g>
<g style="fill:#FFC300; fill-opacity:1.0; stroke-linejoin: miter">
<path d="M218.82721,459.73764L218.82721,459.73764L218.82721,459.73804C218.82721,461.92035,217.05809,463.68948,214.87576,463.68948C212.69344,463.68948,210.92432,461.92035,210.92432,459.73804L210.92432,459.73804L210.92432,459.73764C210.92432,457.55533,212.69344,455.7862,214.87576,455.7862C217.05809,455.7862,218.82721,457.55533,218.82721,459.73764 Z"/>
</g>
<g style="fill:#FFC300; fill-opacity:1.0; stroke-linejoin: miter">
<path d="M138.64323,242.24847L138.64323,242.24847L138.64323,242.24911C138.64323,244.43144,136.87411,246.20056,134.69179,246.20056C132.50946,246.20056,130.74034,244.43144,130.74034,242.24911L130.74034,242.24911L130.74034,242.24847C130.74034,240.06615,132.50946,238.29703,134.69179,238.29703C136.87411,238.29703,138.64323,240.06615,138.64323,242.24847 Z"/>
</g>
<g style="fill:#FFC300; fill-opacity:1.0; stroke-linejoin: miter">
<path d="M138.64323,242.24847L138.64323,242.24847L138.64323,242.24898C138.64323,244.4313,136.87411,246.20044,134.6918,246.20044C132.50946,246.20044,130.74036,244.4313,130.74036,242.24898L130.74036,242.24898L130.74036,242.24847C130.74036,240.06615,132.50946,238.29701,134.69179,238.29701C136.87411,238.29701,138.64323,240.06615,138.64323,242.24847 Z"/>
</g>
<g style="fill:#FFC300; fill-opacity:1.0; stroke-linejoin: miter">
<path d="M154.08241,310.2679L154.08241,310.2679L154.08241,310.26846C154.08241,312.4508,152.3133,314.2199,150.13097,314.2199C147.94864,314.2199,146.17952,312.4508,146.17952,310.26846L146.17952,310.26846L146.17952,310.2679C146.17952,308.0856,147.94864,306.31647,150.13097,306.31647C152.3133,306.31647,154.08241,308.0856,154.08241,310.2679 Z"/>
</g>
<g style="fill:#FFC300; fill-opacity:1.0; stroke-linejoin: miter">
<path d="M154.08241,310.2679L154.08241,310.2679L154.08241,310.26846C154.08241,312.4508,152.3133,314.2199,150.13097,314.2199C147.94864,314.2199,146.17952,312.4508,146.17952,310.26846L146.17952,310.26846L146.17952,310.2679C146.17952,308.0856,147.94864,306.31647,150.13097,306.31647C152.3133,306.31647,154.08241,308.0856,154.08241,310.2679 Z"/>
</g>
</g>
<g id="layer4">
<g style="fill:#FFC300; fill-opacity:1.0; stroke-linejoin: miter">
<path d="M264.2941,643.2583L264.2941,643.2583L476.59097,855.5033C482.52753,861.4384,482.5287,871.0623,476.5936,876.99884C470.6585,882.93536,461.03467,882.9366,455.0981,877.00146L455.0981,877.00146L242.80122,664.7565C236.86469,658.82135,236.86351,649.19745,242.7986,643.2609C248.73369,637.3244,258.35754,637.3232,264.2941,643.2583 Z"/>
</g>
<g style="fill:#FFC300; fill-opacity:1.0; stroke-linejoin: miter">
<path d="M218.82721,459.73764L218.82721,459.73764L218.82721,459.73804C218.82721,461.92035,217.05809,463.68948,214.87576,463.68948C212.69344,463.68948,210.92432,461.92035,210.92432,459.73804L210.92432,459.73804L210.92432,459.73764C210.92432,457.55533,212.69344,455.7862,214.87576,455.7862C217.05809,455.7862,218.82721,457.55533,218.82721,459.73764 Z"/>
</g>
<g style="fill:#FFC300; fill-opacity:1.0; stroke-linejoin: miter">
<path d="M138.64323,242.24847L138.64323,242.24847L138.64323,242.24911C138.64323,244.43144,136.87411,246.20056,134.69179,246.20056C132.50946,246.20056,130.74034,244.43144,130.74034,242.24911L130.74034,242.24911L130.74034,242.24847C130.74034,240.06615,132.50946,238.29703,134.69179,238.29703C136.87411,238.29703,138.64323,240.06615,138.64323,242.24847 Z"/>
</g>
<g style="fill:#FFC300; fill-opacity:1.0; stroke-linejoin: miter">
<path d="M476.60727,664.8211L476.60727,664.8211L264.2268,877.15204C258.2903,883.08716,248.66644,883.08606,242.73132,877.14954C236.7962,871.213,236.79732,861.5891,242.73383,855.654L242.73383,855.654L455.1143,643.32306C461.05078,637.38794,470.67465,637.38904,476.60977,643.32556C482.5449,649.2621,482.54376,658.886,476.60727,664.8211 Z"/>
</g>
<g style="fill:#FFC300; fill-opacity:1.0; stroke-linejoin: miter">
<path d="M218.82721,459.73764L218.82721,459.73764L218.82721,459.73804C218.82721,461.92035,217.05809,463.68948,214.87576,463.68948C212.69344,463.68948,210.92432,461.92035,210.92432,459.73804L210.92432,459.73804L210.92432,459.73764C210.92432,457.55533,212.69344,455.7862,214.87576,455.7862C217.05809,455.7862,218.82721,457.55533,218.82721,459.73764 Z"/>
</g>
<g style="fill:#FFC300; fill-opacity:1.0; stroke-linejoin: miter">
<path d="M138.64323,242.24847L138.64323,242.24847L138.64323,242.24911C138.64323,244.43144,136.87411,246.20056,134.69179,246.20056C132.50946,246.20056,130.74034,244.43144,130.74034,242.24911L130.74034,242.24911L130.74034,242.24847C130.74034,240.06615,132.50946,238.29703,134.69179,238.29703C136.87411,238.29703,138.64323,240.06615,138.64323,242.24847 Z"/>
</g>
<g style="fill:#FFC300; fill-opacity:1.0; stroke-linejoin: miter">
<path d="M138.64323,242.24847L138.64323,242.24847L138.64323,242.24898C138.64323,244.4313,136.87411,246.20044,134.6918,246.20044C132.50946,246.20044,130.74036,244.4313,130.74036,242.24898L130.74036,242.24898L130.74036,242.24847C130.74036,240.06615,132.50946,238.29701,134.69179,238.29701C136.87411,238.29701,138.64323,240.06615,138.64323,242.24847 Z"/>
</g>
</g>
</svg>